# xmcd
#
# Track frame offsets:
#   150
#   16185
#   30064
#   45637
#   63478
#   80675
#   98955
#   116715
#   135103
#   151919
#
# Disc length: 2327 seconds
#
# Revision: 0
# Processed by: cddbd v1.5.2PL0 Copyright (c) Steve Scherf et al.
# Submitted via: GXTranscoder 2.0.1939
#
DISCID=6d09150a
DTITLE=Amy MacDonald - This is the life
DYEAR=1900
DGENRE=UnClassifiable
TTITLE0=Mr Rock&Roll
TTITLE1=This is the life
TTITLE2=Poison Prince
TTITLE3=Youth of today
TTITLE4=Run
TTITLE5=Let´s start a Band
TTITLE6=Barrowland Ballroom
TTITLE7=L.A.
TTITLE8=A wish for something more
TTITLE9=Footballer´s wife
EXTD=
EXTT0=
EXTT1=
EXTT2=
EXTT3=
EXTT4=
EXTT5=
EXTT6=
EXTT7=
EXTT8=
EXTT9=
PLAYORDER=
